HIERARCHY
ROOT Hips
{
	OFFSET 0.000000 0.000000 0.000000
	CHANNELS 6 Xposition Yposition Zposition Zrotation Yrotation Xrotation 
	JOINT LowerBack
	{
		OFFSET 0.000000 0.000000 0.000000
		CHANNELS 3 Zrotation Yrotation Xrotation
		JOINT Spine
		{
			OFFSET 0.028270 2.035590 -0.193380
			CHANNELS 3 Zrotation Yrotation Xrotation
			JOINT Spine1
			{
				OFFSET 0.056720 2.048850 -0.042750
				CHANNELS 3 Zrotation Yrotation Xrotation
				JOINT Neck
				{
					OFFSET 0.000000 0.000000 0.000000
					CHANNELS 3 Zrotation Yrotation Xrotation
					JOINT Neck1
					{
						OFFSET -0.054170 1.746240 0.172020
						CHANNELS 3 Zrotation Yrotation Xrotation
						JOINT Head
						{
							OFFSET 0.104070 1.761360 -0.123970
							CHANNELS 3 Zrotation Yrotation Xrotation
							End Site
							{
								OFFSET 0.000000 0.000000 0.000000
							}
						}
					}
				}
				JOINT LeftShoulder
				{
					OFFSET 0.000000 0.000000 0.000000
					CHANNELS 3 Zrotation Yrotation Xrotation
					JOINT LeftArm
					{
						OFFSET 3.362410 1.200890 -0.311210
						CHANNELS 3 Zrotation Yrotation Xrotation
						JOINT LeftForeArm
						{
							OFFSET 4.983000 -0.000000 -0.000000
							CHANNELS 3 Zrotation Yrotation Xrotation
							JOINT LeftHand
							{
								OFFSET 3.483560 -0.000000 -0.000000
								CHANNELS 3 Zrotation Yrotation Xrotation
								JOINT LeftFingerBase
								{
									OFFSET 0.000000 0.000000 0.000000
									CHANNELS 3 Zrotation Yrotation Xrotation
									JOINT LeftHandIndex1
									{
										OFFSET 0.715260 -0.000000 -0.000000
										CHANNELS 3 Zrotation Yrotation Xrotation
										End Site
										{
											OFFSET 0.000000 0.000000 0.000000
										}
									}
								}
								JOINT LThumb
								{
									OFFSET 0.000000 0.000000 0.000000
									CHANNELS 3 Zrotation Yrotation Xrotation
									End Site
									{
										OFFSET 0.000000 0.000000 0.000000
									}
								}
							}
						}
					}
				}
				JOINT RightShoulder
				{
					OFFSET 0.000000 0.000000 0.000000
					CHANNELS 3 Zrotation Yrotation Xrotation
					JOINT RightArm
					{
						OFFSET -3.136600 1.374050 -0.404650
						CHANNELS 3 Zrotation Yrotation Xrotation
						JOINT RightForeArm
						{
							OFFSET -5.241900 -0.000000 -0.000000
							CHANNELS 3 Zrotation Yrotation Xrotation
							JOINT RightHand
							{
								OFFSET -3.444170 -0.000000 -0.000000
								CHANNELS 3 Zrotation Yrotation Xrotation
								JOINT RightFingerBase
								{
									OFFSET 0.000000 0.000000 0.000000
									CHANNELS 3 Zrotation Yrotation Xrotation
									JOINT RightHandIndex1
									{
										OFFSET -0.622530 -0.000000 -0.000000
										CHANNELS 3 Zrotation Yrotation Xrotation
										End Site
										{
											OFFSET 0.000000 0.000000 0.000000
										}
									}
								}
								JOINT RThumb
								{
									OFFSET 0.000000 0.000000 0.000000
									CHANNELS 3 Zrotation Yrotation Xrotation
									End Site
									{
										OFFSET 0.000000 0.000000 0.000000
									}
								}
							}
						}
					}
				}
			}
		}
	}
}
}
MOTION
Frames: 6
Frame Time: 0.008333
-3.579820 15.616927 -1.092810 -3.435383 82.250436 30.719149 -2.770180 1.793380 10.695726 -1.255635 2.162455 -0.971933 -4.693850 2.190188 -0.933020 9.913819 -7.828659 -7.281470 -1.077113 -0.054508 -0.404614 0.000000 0.000000 0.000000 6.836727 17.818975 2.308919 -73.711025 36.241001 12.207876 -179.840801 -85.265003 -179.996590 -0.752631 2.828181 -0.018440 0.032547 0.113070 0.000000 0.000000 0.000000 0.000000 0.000000 0.000000 0.000000 2.185426 0.611722 -0.901258 64.249645 0.052454 6.717502 179.327914 70.050511 179.964480 -4.936430 0.848572 -0.056271 0.100867 -0.451730 0.000000 0.000000 0.000000 0.000000 0.000000 0.000000 0.000000 
-3.379572 15.557122 -1.069700 -5.592215 81.489481 28.061171 -2.984632 1.834926 10.742240 -1.319276 2.211513 -0.985671 -4.801985 2.242970 -0.982636 10.008493 -7.771111 -7.288577 -1.101741 -0.056528 -0.401090 0.000000 0.000000 0.000000 6.697661 17.814368 2.311856 -73.576878 35.880624 12.119725 -179.840257 -85.289132 -179.996774 -0.701409 2.830529 -0.017224 0.030266 0.112920 0.000000 0.000000 0.000000 0.000000 0.000000 0.000000 0.000000 2.278935 0.741264 -0.898547 64.718594 -0.180647 6.965888 179.328972 70.039548 179.966583 -4.635903 0.974693 -0.058084 0.091181 -0.455401 -0.000000 0.000000 0.000000 0.000000 0.000000 0.000000 0.000000 
-3.180002 15.497919 -1.044031 -7.256912 80.655966 25.891257 -3.230645 1.874962 10.783069 -1.392184 2.259345 -1.003874 -4.924381 2.294641 -1.041324 10.111652 -7.685404 -7.286743 -1.138624 -0.059602 -0.395499 0.000000 0.000000 0.000000 6.491847 17.789402 2.314570 -73.376252 35.397990 12.015690 -179.840430 -85.354941 -179.996936 -0.660154 2.867042 -0.016307 0.027717 0.112334 0.000000 0.000000 0.000000 0.000000 0.000000 0.000000 0.000000 2.430342 0.899245 -0.891673 65.260893 -0.433911 7.181826 179.331241 70.090464 179.968883 -4.307470 1.112984 -0.059294 0.080505 -0.459302 -0.000000 0.000000 0.000000 0.000000 0.000000 0.000000 0.000000 
-2.981590 15.440796 -1.015711 -8.508623 79.763989 24.144641 -3.502991 1.911525 10.811767 -1.473330 2.303774 -1.026843 -5.061897 2.342948 -1.105453 10.222298 -7.571040 -7.276810 -1.189433 -0.063836 -0.388228 0.000000 0.000000 0.000000 6.224586 17.750081 2.317403 -73.110956 34.768102 11.898259 -179.842158 -85.484040 -179.997115 -0.616589 2.951446 -0.015688 0.024581 0.111139 0.000000 0.000000 0.000000 0.000000 0.000000 0.000000 0.000000 2.648481 1.082873 -0.881810 65.878758 -0.706126 7.349204 179.334969 70.209439 179.971407 -3.946949 1.272875 -0.060008 0.068720 -0.463599 0.000000 0.000000 0.000000 0.000000 0.000000 0.000000 0.000000 
-2.784718 15.387158 -0.984760 -9.441088 78.828528 22.739884 -3.789820 1.942628 10.822450 -1.560325 2.342477 -1.055375 -5.215351 2.385445 -1.174363 10.337066 -7.432286 -7.257112 -1.255478 -0.069360 -0.378785 0.000000 0.000000 0.000000 5.888797 17.685434 2.318981 -72.783234 33.989880 11.752181 -179.845795 -85.682031 -179.997348 -0.560346 3.093910 -0.014864 0.020621 0.109205 0.000000 0.000000 0.000000 0.000000 0.000000 0.000000 0.000000 2.939367 1.283754 -0.868366 66.572019 -0.994947 7.457211 179.340164 70.409335 179.974155 -3.554059 1.462377 -0.060024 0.055909 -0.468383 -0.000000 0.000000 0.000000 0.000000 0.000000 0.000000 0.000000 
-2.589850 15.338176 -0.951320 -10.133284 77.866049 21.602736 -4.079536 1.965942 10.814593 -1.650489 2.372816 -1.087715 -5.383784 2.419457 -1.242694 10.452875 -7.274891 -7.228870 -1.336907 -0.076151 -0.367612 0.000000 0.000000 0.000000 5.499093 17.600140 2.319170 -72.403916 33.043458 11.581470 -179.852509 -85.974173 -179.997678 -0.480861 3.304638 -0.013634 0.015602 0.106435 0.000000 0.000000 0.000000 0.000000 0.000000 0.000000 0.000000 3.305629 1.490793 -0.853092 67.338076 -1.295263 7.497100 179.347761 70.704746 179.977090 -3.133158 1.687315 -0.059038 0.042216 -0.473630 0.000000 0.000000 0.000000 0.000000 0.000000 0.000000 0.000000 
